<?xml version="1.0" encoding="UTF-8" standalone="no"?>
<svg
   viewBox="0 0 158 158"
   version="1.1"
   style="zoom: 2;"
   id="svg2"
   sodipodi:docname="pf-java.svg"
   xml:space="preserve"
   inkscape:version="1.3 (0e150ed, 2023-07-21)"
   inkscape:export-filename="pf-java-256.png"
   inkscape:export-xdpi="155.5443"
   inkscape:export-ydpi="155.5443"
   xmlns:inkscape="http://www.inkscape.org/namespaces/inkscape"
   xmlns:sodipodi="http://sodipodi.sourceforge.net/DTD/sodipodi-0.dtd"
   xmlns="http://www.w3.org/2000/svg"
   xmlns:svg="http://www.w3.org/2000/svg"
   xmlns:rdf="http://www.w3.org/1999/02/22-rdf-syntax-ns#"
   xmlns:cc="http://creativecommons.org/ns#"
   xmlns:dc="http://purl.org/dc/elements/1.1/"><sodipodi:namedview
     id="namedview2"
     pagecolor="#ffffff"
     bordercolor="#000000"
     borderopacity="0.25"
     inkscape:showpageshadow="2"
     inkscape:pageopacity="0.0"
     inkscape:pagecheckerboard="0"
     inkscape:deskcolor="#d1d1d1"
     inkscape:zoom="5.4746835"
     inkscape:cx="79"
     inkscape:cy="79"
     inkscape:window-width="1392"
     inkscape:window-height="1212"
     inkscape:window-x="862"
     inkscape:window-y="25"
     inkscape:window-maximized="0"
     inkscape:current-layer="svg2"
     inkscape:export-bgcolor="#ffffffff" /><title
     id="title1">PF-IconLogo-color</title><defs
     id="defs2"><linearGradient
       x1="68%"
       y1="2.25860997e-13%"
       x2="32%"
       y2="100%"
       id="linearGradient-1"><stop
         stop-color="#2B9AF3"
         offset="0%"
         id="stop1" /><stop
         stop-color="#73BCF7"
         stop-opacity="0.502212631"
         offset="100%"
         id="stop2" /></linearGradient></defs><g
     id="PF-IconLogo-color"
     stroke="none"
     stroke-width="1"
     fill="none"
     fill-rule="evenodd"><g
       id="Logo"><path
         d="M61.826087,0 L158,0 L158,96.173913 L147.695652,96.173913 C100.271201,96.173913 61.826087,57.7287992 61.826087,10.3043478 L61.826087,0 L61.826087,0 Z"
         id="Rectangle-Copy-17"
         fill="#0066CC" /><path
         d="M158,3.43478261 L65.2608696,158 L138,158 C149.045695,158 158,149.045695 158,138 L158,3.43478261 L158,3.43478261 Z"
         id="Path-2"
         fill="url(#linearGradient-1)" /><path
         d="M123.652174,-30.9130435 L30.9130435,123.652174 L103.652174,123.652174 C114.697869,123.652174 123.652174,114.697869 123.652174,103.652174 L123.652174,-30.9130435 L123.652174,-30.9130435 Z"
         id="path2"
         fill="url(#linearGradient-1)"
         transform="translate(77.282609, 46.369565) scale(1, -1) rotate(90.000000) translate(-77.282609, -46.369565)" /></g></g><style
     type="text/css"
     id="style1">&#10;	.st0{fill:#FFFFFF;}&#10;	.st1{fill:none;}&#10;	.st2{fill:url(#SVGID_1_);stroke:#000000;}&#10;</style><g
     id="g2"
     transform="matrix(2.2669807,0,0,2.2669807,-2.2917489,81.640482)"><path
       d="m 10.96,3.42 c 0.66,1.39 0.21,11.06 -0.56,14.45 -0.77,3.4 -1.55,7.72 -1.73,11.36 -0.08,1.55 0.16,2.16 1.17,2.16 1.79,0 4.05,-3.77 6.9,-3.68 2.85,0.08 3.75,4.32 5.09,4.29 1.33,-0.03 2.41,-0.49 2.42,-4.61 C 24.29,15.08 13.98,5.1 10.96,3.42 Z"
       id="path1" /><path
       d="m 19.91,13.25 c 0.63,1.06 2.23,0.24 2.3,-0.95 C 22.28,11.11 22.1,9.6 21.33,9.55 20.56,9.49 20,8.72 19.23,8.66 18.46,8.6 17.62,9.38 17.26,8.35 16.9,7.32 18.23,6.89 19.23,6.72 18.34,5.83 17.82,4.85 17.43,3.82 17.04,2.8 16.75,1.86 17.84,1.46 c 1.09,-0.4 1,1.66 2.25,2.61 -0.37,-1.39 -0.5,-1.97 -0.48,-2.78 0.02,-0.81 -0.03,-1.43 1.12,-1.27 1.15,0.16 0.65,2.54 1.54,3.52 0.27,-0.92 0.44,-2.09 1.09,-2.57 0.65,-0.48 2.15,-0.49 1.2,1.48 -0.95,1.97 0.28,3.04 -0.01,4.6 -0.29,1.56 -1.18,1.27 -1.57,2.27 -0.38,1 0.23,3.28 -0.5,4.3 -0.73,1.02 -0.85,2.6 -0.38,3.85 -1.44,-1.34 -2.19,-4.22 -2.19,-4.22 z"
       id="path2-7" /><path
       d="m 10.93,14.58 c -0.58,3.99 -2.61,4.47 -2.71,6.12 -0.1,1.66 0.54,1.82 0.5,3.35 -0.04,1.53 -1.4,2.15 -1.57,2.99 -0.16,0.83 0.7,1.1 1.2,1.1 0.5,0 1.01,-2.21 1.21,-3.61 0.2,-1.4 -0.67,-2.23 -0.67,-3.19 0,-0.96 1.26,-2.72 1.03,-1.18 1.05,-1.65 1.55,-3.75 1.01,-5.58 z"
       id="path3" /><path
       class="st0"
       d="m 11.71,16.1 c -0.44,2.16 -3.2,14.22 -1.79,14.37 1.4,0.15 3.4,-3.73 6.67,-3.7 3.27,0.03 4.56,4.35 5.36,4.33 0.8,-0.03 1.32,0.28 1.41,-4.59 0.09,-4.87 -2.89,-11.1 -4.65,-13.84 -2.4,0.15 -4.96,2.06 -7,3.43 z"
       id="path4" /><g
       id="g15">&#10;	<path
   class="st1"
   d="m 18.06,13.52 c -0.15,-1.43 -1.5,-2 -2.8,-1.82 -1.09,0.15 -2.54,1.07 -2.68,2.25 -0.15,1.33 0.9,2.55 2.23,2.61 1.18,0.05 2.45,-0.52 2.98,-1.63 0.21,-0.45 0.29,-0.91 0.27,-1.41"
   id="path5" />&#10;	<path
   d="m 18.68,13.47 c -0.13,-1.35 -1.13,-2.2 -2.43,-2.41 -1.25,-0.2 -2.61,0.39 -3.49,1.27 -0.98,0.98 -1.02,2.35 -0.33,3.52 0.68,1.15 2.19,1.53 3.42,1.24 1.69,-0.38 2.94,-1.86 2.83,-3.62"
   id="path6" />&#10;	&#10;		<radialGradient
   id="SVGID_1_"
   cx="13.9314"
   cy="20.878401"
   r="4.2974"
   gradientTransform="matrix(1,0,0,-1,0,34)"
   gradientUnits="userSpaceOnUse">&#10;		<stop
   offset="0"
   style="stop-color:#FFFFFF"
   id="stop6" />&#10;		<stop
   offset="0.0604"
   style="stop-color:#FBC8B4"
   id="stop7" />&#10;		<stop
   offset="0.0712"
   style="stop-color:#FBC3B0"
   id="stop8" />&#10;		<stop
   offset="0.1829"
   style="stop-color:#F7978B"
   id="stop9" />&#10;		<stop
   offset="0.2995"
   style="stop-color:#F4716B"
   id="stop10" />&#10;		<stop
   offset="0.4199"
   style="stop-color:#F15251"
   id="stop11" />&#10;		<stop
   offset="0.5453"
   style="stop-color:#EF3A3D"
   id="stop12" />&#10;		<stop
   offset="0.6778"
   style="stop-color:#EE292F"
   id="stop13" />&#10;		<stop
   offset="0.822"
   style="stop-color:#ED1F27"
   id="stop14" />&#10;		<stop
   offset="1"
   style="stop-color:#ED1C24"
   id="stop15" />&#10;	</radialGradient>&#10;	<path
   class="st2"
   d="m 18.06,13.98 c -0.12,1.23 -1.1,2.21 -2.27,2.5 -1.25,0.3 -2.62,-0.18 -3.07,-1.46 -0.23,-0.65 -0.19,-1.33 0.21,-1.9 0.33,-0.48 0.87,-0.86 1.4,-1.1 1.09,-0.5 2.66,-0.55 3.42,0.56 0.27,0.41 0.32,0.9 0.31,1.4"
   id="path15"
   style="fill:url(#SVGID_1_)" />&#10;</g></g><metadata
     id="metadata2"><rdf:RDF><cc:Work
         rdf:about=""><dc:title>PF-IconLogo-color</dc:title></cc:Work></rdf:RDF></metadata></svg>
